<?xml version="1.0" encoding="UTF-8"?>
<svg version="1.1" viewBox="0 0 360 80" xml:space="preserve" xmlns="http://www.w3.org/2000/svg" height="32">
	<path d="m226.4-0.3c11.3 0 20.8 3.9 28.5 11.6 7.8 7.7 11.7 17.2 11.7 28.5s-3.8 20.7-11.5 28.2c-8.1 8-17.7 12-28.7 12-10.9 0-20.3-4-28.2-11.9s-11.8-17.3-11.8-28.2c0-11 3.9-20.5 11.8-28.5 7.7-7.8 17.1-11.7 28.2-11.7zm-31 29.4c-1.2 3.3-1.8 6.9-1.8 10.8 0 8.9 3.2 16.6 9.7 23.1s14.3 9.7 23.2 9.7c9 0 16.8-3.3 23.4-9.8 2.3-2.2 4.2-4.6 5.5-7l-15.1-6.9c-0.5 2.5-1.8 4.6-3.8 6.2s-4.4 2.5-7.2 2.8v6.2h-4.7v-6.2c-4.4 0-8.5-1.6-12.2-4.8l5.5-5.6c2.6 2.4 5.6 3.7 9 3.7 1.4 0 2.6-0.3 3.5-0.9 1-0.6 1.5-1.6 1.5-3.1 0-1-0.4-1.8-1.1-2.4l-3.9-1.6-4.7-2.2-6.4-2.8-20.4-9.2zm31.2-22.2c-9.1 0-16.8 3.2-23.1 9.7-1.6 1.6-3.1 3.4-4.4 5.4l15.3 6.9c0.7-2.1 1.9-3.8 3.8-5.1s4-2 6.5-2.1v-6.2h4.7v6.2c3.7 0.2 7 1.4 10 3.7l-5.2 5.4c-2.2-1.6-4.5-2.4-6.9-2.4-1.2 0-2.4 0.2-3.3 0.7-1 0.5-1.5 1.3-1.5 2.4 0 0.3 0.1 0.7 0.4 1l5.1 2.3 3.5 1.6 6.5 2.9 20.6 9.2c0.7-2.8 1-5.7 1-8.6 0-9.2-3.2-17-9.6-23.3-6.6-6.5-14.3-9.7-23.4-9.7z"/>
	<path d="m40.1-0.3c11.2 0 20.8 3.9 28.7 11.8 3.8 3.8 6.6 8.1 8.6 12.9s2.9 10 2.9 15.4c0 5.5-1 10.6-2.9 15.4s-4.8 9-8.6 12.7c-3.9 3.9-8.4 6.8-13.3 8.9-5 2.2-10.1 3.2-15.4 3.2s-10.4-1-15.2-3-9.2-5-13-8.8c-4-3.9-6.9-8.2-8.9-13.1s-3-9.9-3-15.3c0-5.3 1-10.4 3-15.3s5-9.3 8.8-13.1c7.7-7.8 17.1-11.7 28.3-11.7zm0.1 7.3c-9.2 0-16.9 3.2-23.1 9.6-3.2 3.2-5.6 6.8-7.3 10.8s-2.5 8.2-2.5 12.5 0.8 8.4 2.5 12.4 4.1 7.5 7.3 10.7c3.2 3.1 6.7 5.5 10.7 7.2 4 1.6 8.1 2.5 12.5 2.5 4.3 0 8.5-0.8 12.5-2.5s7.7-4.1 10.9-7.2c6.3-6.1 9.4-13.8 9.4-23 0-4.4-0.8-8.6-2.4-12.6s-4-7.5-7.1-10.6c-6.6-6.6-14.3-9.8-23.4-9.8zm-0.5 26.2l-5.4 2.8c-0.6-1.2-1.3-2-2.1-2.5s-1.6-0.7-2.3-0.7c-3.6 0-5.4 2.4-5.4 7.1 0 2.1 0.5 3.9 1.4 5.2s2.2 1.9 4 1.9c2.3 0 4-1.1 4.9-3.4l4.9 2.5c-1.1 2-2.5 3.5-4.4 4.6s-3.9 1.7-6.2 1.7c-3.6 0-6.5-1.1-8.7-3.3s-3.3-5.3-3.3-9.2c0-3.8 1.1-6.9 3.3-9.1s5-3.4 8.4-3.4c5.2 0 8.7 1.9 10.9 5.8zm23.1 0l-5.3 2.8c-0.6-1.2-1.3-2-2.1-2.5s-1.6-0.7-2.4-0.7c-3.6 0-5.4 2.4-5.4 7.1 0 2.1 0.5 3.9 1.4 5.2s2.2 1.9 4 1.9c2.3 0 4-1.1 4.9-3.4l5 2.5c-1.1 2-2.6 3.5-4.4 4.6-1.9 1.1-3.9 1.7-6.1 1.7-3.6 0-6.5-1.1-8.7-3.3s-3.3-5.3-3.3-9.2c0-3.8 1.1-6.9 3.3-9.1s5-3.4 8.4-3.4c5.1 0 8.6 1.9 10.7 5.8z"/>
	<path d="m133.2-0.3c11.3 0 20.8 3.9 28.5 11.6 7.8 7.8 11.7 17.3 11.7 28.5 0 11.3-3.8 20.7-11.5 28.2-8.1 8-17.7 12-28.7 12-10.8 0-20.3-3.9-28.2-11.8s-11.8-17.3-11.8-28.3 3.9-20.5 11.8-28.5c7.7-7.8 17.2-11.7 28.2-11.7zm0.2 7.3c-9.1 0-16.8 3.2-23.1 9.6-6.5 6.7-9.8 14.5-9.8 23.3 0 8.9 3.2 16.6 9.7 23.1s14.2 9.7 23.2 9.7c8.9 0 16.7-3.3 23.4-9.8 6.3-6.1 9.5-13.7 9.5-23 0-9.1-3.2-16.9-9.6-23.3-6.5-6.4-14.2-9.6-23.3-9.6zm10.7 22.9v16.4h-4.6v19.5h-12.5v-19.5h-4.6v-16.4c0-0.7 0.3-1.3 0.8-1.8s1.1-0.8 1.8-0.8h16.5c0.7 0 1.3 0.3 1.8 0.8 0.6 0.5 0.8 1.1 0.8 1.8zm-16.4-10.3c0-3.8 1.9-5.7 5.6-5.7s5.6 1.9 5.6 5.7c0 3.7-1.9 5.6-5.6 5.6s-5.6-1.9-5.6-5.6z"/>
	<path d="m319.6-0.3c11.2 0 20.7 3.9 28.5 11.7 7.8 7.7 11.7 17.2 11.7 28.4s-3.8 20.6-11.5 28.2c-8 8-17.6 12-28.7 12-10.8 0-20.3-3.9-28.2-11.8s-11.8-17.3-11.8-28.3c0-10.9 3.9-20.4 11.8-28.4 7.8-7.9 17.2-11.8 28.2-11.8zm0.2 7.3c-9.1 0-16.8 3.2-23.1 9.7-6.5 6.6-9.8 14.4-9.8 23.2 0 8.9 3.2 16.6 9.7 23.1s14.2 9.7 23.2 9.7c8.9 0 16.7-3.3 23.4-9.8 6.3-6.1 9.5-13.8 9.5-23s-3.2-16.9-9.6-23.2c-6.5-6.5-14.2-9.7-23.3-9.7zm15.1 23.4v6.9h-29.2v-6.9h29.2zm0 12.9v6.9h-29.2v-6.9h29.2z"/>
</svg>